<?xml version="1.0" encoding="utf-8"?>
<!-- Generator: Adobe Illustrator 21.1.0, SVG Export Plug-In . SVG Version: 6.00 Build 0)  -->
<svg version="1.1" id="Laag_1" xmlns="http://www.w3.org/2000/svg" xmlns:xlink="http://www.w3.org/1999/xlink" x="0px" y="0px"
	 viewBox="0 0 125.1 59.4" style="enable-background:new 0 0 125.1 59.4;" xml:space="preserve">
<style type="text/css">
	.st0{fill:#FFFFFF;}
</style>
<path class="st0" d="M1.2,29.1c-0.7,0-1.2-0.6-1.2-1.2c0-0.7,0.6-1.2,1.2-1.2c0.7,0,1.2,0.6,1.2,1.2C2.5,28.5,1.9,29.1,1.2,29.1z
	 M0.4,43V31.5h1.8V43H0.4z"/>
<path class="st0" d="M12.8,43v-7.1c0-1.4-0.2-3-2-3c-1.4,0-2.7,1-3.6,1.8V43H5.4V31.5h1.5l0.2,1.4c1.4-1,2.5-1.7,4.1-1.7
	c1.7,0,3.3,1.2,3.3,4.1V43H12.8z"/>
<path class="st0" d="M22.7,27.6c-0.3-0.2-0.8-0.3-1.4-0.3c-1,0-1.5,0.7-1.5,2v2.2h3L22.2,33h-2.4v10H18V33h-1.4v-1.5H18v-2
	c0-3,1.9-3.7,3.4-3.7c0.5,0,1.2,0.1,1.7,0.4L22.7,27.6z"/>
<path class="st0" d="M25.9,29.1c-0.7,0-1.2-0.6-1.2-1.2c0-0.7,0.6-1.2,1.2-1.2c0.7,0,1.2,0.6,1.2,1.2C27.1,28.5,26.6,29.1,25.9,29.1
	z M25,43V31.5h1.8V43H25z"/>
<path class="st0" d="M37,43v-7.1c0-1.4-0.2-3-2-3c-1.4,0-2.7,1-3.6,1.8V43h-1.8V31.5h1.5l0.2,1.4c1.4-1,2.5-1.7,4.1-1.7
	c1.7,0,3.3,1.2,3.3,4.1V43H37z"/>
<path class="st0" d="M42.5,29.1c-0.7,0-1.2-0.6-1.2-1.2c0-0.7,0.6-1.2,1.2-1.2c0.7,0,1.2,0.6,1.2,1.2C43.8,28.5,43.2,29.1,42.5,29.1
	z M41.7,43V31.5h1.8V43H41.7z"/>
<path class="st0" d="M49.5,43.2c-1.7,0-2.5-1-2.5-2.5V33h-1.9v-1.5H47v-2.5l1.8-0.6v3.1h3.5L51.7,33h-2.9v7.3c0,1,0.4,1.4,1.1,1.4
	c0.8,0,1.6-0.5,2-0.8l0.6,1.3C51.7,42.7,50.5,43.2,49.5,43.2z"/>
<path class="st0" d="M61.2,43l-0.5-1.1c-0.7,0.7-1.8,1.4-3.5,1.4c-1.9,0-3.5-1.3-3.5-3.5c0-2.3,1.6-3.7,4.6-3.7l2.3-0.1
	c0-0.2,0-0.4,0-0.5c0-2-1-2.6-2.5-2.6c-1.5,0-2.4,0.6-3,1.1l-0.7-1.3c1.4-1,2.6-1.3,4.1-1.3c2.2,0,3.9,0.9,3.9,3.9v3.5
	c0,3.3,0.1,4,0.2,4.4H61.2z M60.7,37.5l-2.3,0.1c-2.1,0.1-2.9,0.8-2.9,2c0,1.2,0.7,2.1,2.2,2.1c1.5,0,2.4-0.8,2.9-1.3V37.5z"/>
<path class="st0" d="M67.6,43.2c-1.7,0-2.7-0.4-3.4-0.9l0.7-1.4c0.5,0.3,1.5,0.8,2.8,0.8c1.4,0,2.4-0.6,2.4-1.7
	c0-2.8-5.2-1.8-5.2-5.9c0-1.7,1.2-3,3.8-3c1.2,0,2.1,0.3,2.9,0.6v1.6c-0.8-0.3-1.6-0.7-2.8-0.7c-1.2,0-2.1,0.4-2.1,1.5
	c0,2.6,5.3,1.9,5.3,5.7C72,42.2,70,43.2,67.6,43.2z"/>
<path class="st0" d="M34.8,56.6c-0.7,0-1-0.5-1-1.1v-7.8h0.9v7.4c0,0.6,0.1,0.7,0.5,0.7c0.1,0,0.2,0,0.3,0l0.1,0.7
	C35.3,56.5,35.1,56.6,34.8,56.6z"/>
<path class="st0" d="M37.1,53.7c0,1.1,0.6,2.1,1.9,2.1c0.5,0,1-0.2,1.4-0.4l0.3,0.6c-0.4,0.3-1.2,0.6-1.8,0.6
	c-1.8,0-2.7-1.5-2.7-3.2c0-1.7,1-3,2.4-3c1.5,0,2.3,1.2,2.3,3c0,0.1,0,0.1,0,0.2H37.1z M38.6,51.2c-0.9,0-1.4,0.8-1.4,1.7h2.8
	C39.9,52.1,39.4,51.2,38.6,51.2z"/>
<path class="st0" d="M45.6,56.4l-0.2-0.6c-0.4,0.3-0.9,0.7-1.8,0.7c-1,0-1.8-0.7-1.8-1.8c0-1.2,0.8-1.9,2.4-1.9l1.2,0
	c0-0.1,0-0.2,0-0.3c0-1-0.5-1.3-1.3-1.3c-0.8,0-1.2,0.3-1.5,0.5l-0.4-0.7c0.7-0.5,1.3-0.7,2.1-0.7c1.1,0,2,0.5,2,2v1.8
	c0,1.7,0,2.1,0.1,2.2H45.6z M45.3,53.6l-1.2,0c-1.1,0-1.5,0.4-1.5,1c0,0.6,0.4,1.1,1.1,1.1c0.8,0,1.2-0.4,1.5-0.7V53.6z"/>
<path class="st0" d="M50.4,51.5c-0.1,0-0.3-0.1-0.6-0.1c-0.3,0-0.9,0.3-1.3,0.7v4.3h-0.9v-5.9h0.7l0.1,0.7c0.8-0.7,1.2-0.8,1.7-0.8
	c0.3,0,0.5,0.1,0.6,0.2L50.4,51.5z"/>
<path class="st0" d="M55.2,56.4v-3.6c0-0.7-0.1-1.5-1-1.5c-0.7,0-1.4,0.5-1.8,0.9v4.2h-0.9v-5.9h0.7l0.1,0.7
	c0.7-0.5,1.3-0.8,2.1-0.8c0.8,0,1.7,0.6,1.7,2.1v3.9H55.2z"/>
<path class="st0" d="M58.2,49.4c-0.3,0-0.6-0.3-0.6-0.6c0-0.3,0.3-0.6,0.6-0.6c0.3,0,0.6,0.3,0.6,0.6C58.8,49.1,58.5,49.4,58.2,49.4
	z M57.7,56.4v-5.9h0.9v5.9H57.7z"/>
<path class="st0" d="M64,56.4v-3.6c0-0.7-0.1-1.5-1-1.5c-0.7,0-1.4,0.5-1.8,0.9v4.2h-0.9v-5.9H61l0.1,0.7c0.7-0.5,1.3-0.8,2.1-0.8
	c0.8,0,1.7,0.6,1.7,2.1v3.9H64z"/>
<path class="st0" d="M68.6,59.4c-1.8,0-2.8-0.8-2.8-1.7c0-0.6,0.4-1.1,1.1-1.5c-0.3-0.2-0.4-0.4-0.4-0.7c0-0.3,0.2-0.7,0.7-1.1
	c-0.6-0.3-1-1-1-1.8c0-1.2,1-2.1,2.2-2.1c0.4,0,0.7,0,1,0.2c0.1,0,0.1,0,0.1,0c0.3-0.3,0.9-0.5,1.6-0.4L70.9,51
	c-0.3-0.1-0.6-0.1-0.9,0c0.4,0.4,0.7,0.9,0.7,1.5c0,1.3-0.9,2.2-2.3,2.2c-0.3,0-0.5,0-0.7-0.1c-0.2,0.2-0.3,0.4-0.3,0.7
	c0,0.9,4,0,4,2.2C71.5,58.4,70.6,59.4,68.6,59.4z M67.6,56.4c-0.3,0.2-0.8,0.5-0.8,1.1c0,0.6,0.7,1.1,1.9,1.1c1.2,0,1.8-0.4,1.8-1.1
	C70.5,56.5,68.4,56.7,67.6,56.4z M68.5,51.2c-0.8,0-1.3,0.5-1.3,1.3c0,0.8,0.5,1.4,1.3,1.4c0.8,0,1.3-0.5,1.3-1.4
	C69.8,51.8,69.3,51.2,68.5,51.2z"/>
<rect x="98.2" y="43" class="st0" width="10.8" height="10.8"/>
<rect x="82.1" y="26.9" class="st0" width="16.1" height="16.1"/>
<rect x="98.2" class="st0" width="26.9" height="26.9"/>
<rect x="109" y="37.6" class="st0" width="5.4" height="5.4"/>
<rect x="103.6" y="32.2" class="st0" width="5.4" height="5.4"/>
</svg>
